<mxfile host="app.diagrams.net" agent="Mozilla/5.0 (Windows NT 10.0; Win64; x64) AppleWebKit/537.36 (KHTML, like Gecko) Chrome/129.0.0.0 Safari/537.36" version="24.7.17">
  <diagram name="‫עמוד-1‬" id="oi6l8PESIVdAO3ibSvpq">
    <mxGraphModel dx="1619" dy="737" grid="1" gridSize="10" guides="1" tooltips="1" connect="1" arrows="1" fold="1" page="1" pageScale="1" pageWidth="827" pageHeight="1169" math="0" shadow="0">
      <root>
        <mxCell id="0" />
        <mxCell id="1" parent="0" />
        <mxCell id="7nqQfGkcjDdLF6Xs0SzB-1" value="products" style="shape=table;startSize=19;container=1;collapsible=0;childLayout=tableLayout;fixedRows=1;rowLines=0;fontStyle=0;strokeColor=default;fontSize=16;" parent="1" vertex="1">
          <mxGeometry x="-730" y="350" width="218" height="168" as="geometry" />
        </mxCell>
        <mxCell id="7nqQfGkcjDdLF6Xs0SzB-2" value="" style="shape=tableRow;horizontal=0;startSize=0;swimlaneHead=0;swimlaneBody=0;top=0;left=0;bottom=0;right=0;collapsible=0;dropTarget=0;fillColor=none;points=[[0,0.5],[1,0.5]];portConstraint=eastwest;strokeColor=inherit;fontSize=16;" parent="7nqQfGkcjDdLF6Xs0SzB-1" vertex="1">
          <mxGeometry y="19" width="218" height="29" as="geometry" />
        </mxCell>
        <mxCell id="7nqQfGkcjDdLF6Xs0SzB-3" value="PK" style="shape=partialRectangle;html=1;whiteSpace=wrap;connectable=0;fillColor=none;top=0;left=0;bottom=0;right=0;overflow=hidden;pointerEvents=1;strokeColor=inherit;fontSize=16;" parent="7nqQfGkcjDdLF6Xs0SzB-2" vertex="1">
          <mxGeometry width="46" height="29" as="geometry">
            <mxRectangle width="46" height="29" as="alternateBounds" />
          </mxGeometry>
        </mxCell>
        <mxCell id="7nqQfGkcjDdLF6Xs0SzB-4" value="id (serial)" style="shape=partialRectangle;html=1;whiteSpace=wrap;connectable=0;fillColor=none;top=0;left=0;bottom=0;right=0;align=left;spacingLeft=6;overflow=hidden;strokeColor=inherit;fontSize=16;" parent="7nqQfGkcjDdLF6Xs0SzB-2" vertex="1">
          <mxGeometry x="46" width="172" height="29" as="geometry">
            <mxRectangle width="172" height="29" as="alternateBounds" />
          </mxGeometry>
        </mxCell>
        <mxCell id="7nqQfGkcjDdLF6Xs0SzB-5" value="" style="shape=tableRow;horizontal=0;startSize=0;swimlaneHead=0;swimlaneBody=0;top=0;left=0;bottom=0;right=0;collapsible=0;dropTarget=0;fillColor=none;points=[[0,0.5],[1,0.5]];portConstraint=eastwest;strokeColor=inherit;fontSize=16;" parent="7nqQfGkcjDdLF6Xs0SzB-1" vertex="1">
          <mxGeometry y="48" width="218" height="30" as="geometry" />
        </mxCell>
        <mxCell id="7nqQfGkcjDdLF6Xs0SzB-6" value="" style="shape=partialRectangle;html=1;whiteSpace=wrap;connectable=0;fillColor=none;top=0;left=0;bottom=0;right=0;overflow=hidden;strokeColor=inherit;fontSize=16;" parent="7nqQfGkcjDdLF6Xs0SzB-5" vertex="1">
          <mxGeometry width="46" height="30" as="geometry">
            <mxRectangle width="46" height="30" as="alternateBounds" />
          </mxGeometry>
        </mxCell>
        <mxCell id="7nqQfGkcjDdLF6Xs0SzB-7" value="name (text)" style="shape=partialRectangle;html=1;whiteSpace=wrap;connectable=0;fillColor=none;top=0;left=0;bottom=0;right=0;align=left;spacingLeft=6;overflow=hidden;strokeColor=inherit;fontSize=16;" parent="7nqQfGkcjDdLF6Xs0SzB-5" vertex="1">
          <mxGeometry x="46" width="172" height="30" as="geometry">
            <mxRectangle width="172" height="30" as="alternateBounds" />
          </mxGeometry>
        </mxCell>
        <mxCell id="7nqQfGkcjDdLF6Xs0SzB-8" value="" style="shape=tableRow;horizontal=0;startSize=0;swimlaneHead=0;swimlaneBody=0;top=0;left=0;bottom=0;right=0;collapsible=0;dropTarget=0;fillColor=none;points=[[0,0.5],[1,0.5]];portConstraint=eastwest;strokeColor=inherit;fontSize=16;" parent="7nqQfGkcjDdLF6Xs0SzB-1" vertex="1">
          <mxGeometry y="78" width="218" height="30" as="geometry" />
        </mxCell>
        <mxCell id="7nqQfGkcjDdLF6Xs0SzB-9" value="" style="shape=partialRectangle;html=1;whiteSpace=wrap;connectable=0;fillColor=none;top=0;left=0;bottom=0;right=0;overflow=hidden;strokeColor=inherit;fontSize=16;" parent="7nqQfGkcjDdLF6Xs0SzB-8" vertex="1">
          <mxGeometry width="46" height="30" as="geometry">
            <mxRectangle width="46" height="30" as="alternateBounds" />
          </mxGeometry>
        </mxCell>
        <mxCell id="7nqQfGkcjDdLF6Xs0SzB-10" value="price (smallint)" style="shape=partialRectangle;html=1;whiteSpace=wrap;connectable=0;fillColor=none;top=0;left=0;bottom=0;right=0;align=left;spacingLeft=6;overflow=hidden;strokeColor=inherit;fontSize=16;" parent="7nqQfGkcjDdLF6Xs0SzB-8" vertex="1">
          <mxGeometry x="46" width="172" height="30" as="geometry">
            <mxRectangle width="172" height="30" as="alternateBounds" />
          </mxGeometry>
        </mxCell>
        <mxCell id="7nqQfGkcjDdLF6Xs0SzB-15" value="Text" style="text;html=1;align=center;verticalAlign=middle;resizable=0;points=[];autosize=1;strokeColor=none;fillColor=none;" parent="7nqQfGkcjDdLF6Xs0SzB-8" vertex="1">
          <mxGeometry x="218" width="NaN" height="30" as="geometry">
            <mxRectangle width="NaN" height="30" as="alternateBounds" />
          </mxGeometry>
        </mxCell>
        <mxCell id="7nqQfGkcjDdLF6Xs0SzB-19" style="shape=tableRow;horizontal=0;startSize=0;swimlaneHead=0;swimlaneBody=0;top=0;left=0;bottom=0;right=0;collapsible=0;dropTarget=0;fillColor=none;points=[[0,0.5],[1,0.5]];portConstraint=eastwest;strokeColor=inherit;fontSize=16;" parent="7nqQfGkcjDdLF6Xs0SzB-1" vertex="1">
          <mxGeometry y="108" width="218" height="30" as="geometry" />
        </mxCell>
        <mxCell id="7nqQfGkcjDdLF6Xs0SzB-20" style="shape=partialRectangle;html=1;whiteSpace=wrap;connectable=0;fillColor=none;top=0;left=0;bottom=0;right=0;overflow=hidden;strokeColor=inherit;fontSize=16;" parent="7nqQfGkcjDdLF6Xs0SzB-19" vertex="1">
          <mxGeometry width="46" height="30" as="geometry">
            <mxRectangle width="46" height="30" as="alternateBounds" />
          </mxGeometry>
        </mxCell>
        <mxCell id="7nqQfGkcjDdLF6Xs0SzB-21" value="gender (varchar10)" style="shape=partialRectangle;html=1;whiteSpace=wrap;connectable=0;fillColor=none;top=0;left=0;bottom=0;right=0;align=left;spacingLeft=6;overflow=hidden;strokeColor=inherit;fontSize=16;" parent="7nqQfGkcjDdLF6Xs0SzB-19" vertex="1">
          <mxGeometry x="46" width="172" height="30" as="geometry">
            <mxRectangle width="172" height="30" as="alternateBounds" />
          </mxGeometry>
        </mxCell>
        <mxCell id="7nqQfGkcjDdLF6Xs0SzB-22" style="text;html=1;align=center;verticalAlign=middle;resizable=0;points=[];autosize=1;strokeColor=none;fillColor=none;" parent="7nqQfGkcjDdLF6Xs0SzB-19" vertex="1">
          <mxGeometry x="218" width="NaN" height="30" as="geometry">
            <mxRectangle width="NaN" height="30" as="alternateBounds" />
          </mxGeometry>
        </mxCell>
        <mxCell id="aXj-gzbwXwIFK5yct83T-6" style="shape=tableRow;horizontal=0;startSize=0;swimlaneHead=0;swimlaneBody=0;top=0;left=0;bottom=0;right=0;collapsible=0;dropTarget=0;fillColor=none;points=[[0,0.5],[1,0.5]];portConstraint=eastwest;strokeColor=inherit;fontSize=16;" vertex="1" parent="7nqQfGkcjDdLF6Xs0SzB-1">
          <mxGeometry y="138" width="218" height="30" as="geometry" />
        </mxCell>
        <mxCell id="aXj-gzbwXwIFK5yct83T-7" style="shape=partialRectangle;html=1;whiteSpace=wrap;connectable=0;fillColor=none;top=0;left=0;bottom=0;right=0;overflow=hidden;strokeColor=inherit;fontSize=16;" vertex="1" parent="aXj-gzbwXwIFK5yct83T-6">
          <mxGeometry width="46" height="30" as="geometry">
            <mxRectangle width="46" height="30" as="alternateBounds" />
          </mxGeometry>
        </mxCell>
        <mxCell id="aXj-gzbwXwIFK5yct83T-8" value="img (text)" style="shape=partialRectangle;html=1;whiteSpace=wrap;connectable=0;fillColor=none;top=0;left=0;bottom=0;right=0;align=left;spacingLeft=6;overflow=hidden;strokeColor=inherit;fontSize=16;" vertex="1" parent="aXj-gzbwXwIFK5yct83T-6">
          <mxGeometry x="46" width="172" height="30" as="geometry">
            <mxRectangle width="172" height="30" as="alternateBounds" />
          </mxGeometry>
        </mxCell>
        <mxCell id="aXj-gzbwXwIFK5yct83T-9" style="text;html=1;align=center;verticalAlign=middle;resizable=0;points=[];autosize=1;strokeColor=none;fillColor=none;" vertex="1" parent="aXj-gzbwXwIFK5yct83T-6">
          <mxGeometry x="218" width="NaN" height="30" as="geometry">
            <mxRectangle width="NaN" height="30" as="alternateBounds" />
          </mxGeometry>
        </mxCell>
        <mxCell id="7nqQfGkcjDdLF6Xs0SzB-11" value="" style="shape=tableRow;horizontal=0;startSize=0;swimlaneHead=0;swimlaneBody=0;top=0;left=0;bottom=0;right=0;collapsible=0;dropTarget=0;fillColor=none;points=[[0,0.5],[1,0.5]];portConstraint=eastwest;strokeColor=inherit;fontSize=16;" parent="1" vertex="1">
          <mxGeometry x="-10" y="290" width="180" height="30" as="geometry" />
        </mxCell>
        <mxCell id="7nqQfGkcjDdLF6Xs0SzB-12" value="" style="shape=partialRectangle;html=1;whiteSpace=wrap;connectable=0;fillColor=none;top=0;left=0;bottom=0;right=0;overflow=hidden;strokeColor=inherit;fontSize=16;" parent="7nqQfGkcjDdLF6Xs0SzB-11" vertex="1">
          <mxGeometry width="40" height="30" as="geometry">
            <mxRectangle width="40" height="30" as="alternateBounds" />
          </mxGeometry>
        </mxCell>
        <mxCell id="7nqQfGkcjDdLF6Xs0SzB-27" value="orders" style="shape=table;startSize=19;container=1;collapsible=0;childLayout=tableLayout;fixedRows=1;rowLines=0;fontStyle=0;strokeColor=default;fontSize=16;" parent="1" vertex="1">
          <mxGeometry x="20" y="250" width="280" height="110" as="geometry" />
        </mxCell>
        <mxCell id="7nqQfGkcjDdLF6Xs0SzB-28" value="" style="shape=tableRow;horizontal=0;startSize=0;swimlaneHead=0;swimlaneBody=0;top=0;left=0;bottom=0;right=0;collapsible=0;dropTarget=0;fillColor=none;points=[[0,0.5],[1,0.5]];portConstraint=eastwest;strokeColor=inherit;fontSize=16;" parent="7nqQfGkcjDdLF6Xs0SzB-27" vertex="1">
          <mxGeometry y="19" width="280" height="29" as="geometry" />
        </mxCell>
        <mxCell id="7nqQfGkcjDdLF6Xs0SzB-29" value="PK" style="shape=partialRectangle;html=1;whiteSpace=wrap;connectable=0;fillColor=none;top=0;left=0;bottom=0;right=0;overflow=hidden;pointerEvents=1;strokeColor=inherit;fontSize=16;" parent="7nqQfGkcjDdLF6Xs0SzB-28" vertex="1">
          <mxGeometry width="59" height="29" as="geometry">
            <mxRectangle width="59" height="29" as="alternateBounds" />
          </mxGeometry>
        </mxCell>
        <mxCell id="7nqQfGkcjDdLF6Xs0SzB-30" value="id (serial)" style="shape=partialRectangle;html=1;whiteSpace=wrap;connectable=0;fillColor=none;top=0;left=0;bottom=0;right=0;align=left;spacingLeft=6;overflow=hidden;strokeColor=inherit;fontSize=16;" parent="7nqQfGkcjDdLF6Xs0SzB-28" vertex="1">
          <mxGeometry x="59" width="221" height="29" as="geometry">
            <mxRectangle width="221" height="29" as="alternateBounds" />
          </mxGeometry>
        </mxCell>
        <mxCell id="7nqQfGkcjDdLF6Xs0SzB-34" value="" style="shape=tableRow;horizontal=0;startSize=0;swimlaneHead=0;swimlaneBody=0;top=0;left=0;bottom=0;right=0;collapsible=0;dropTarget=0;fillColor=none;points=[[0,0.5],[1,0.5]];portConstraint=eastwest;strokeColor=inherit;fontSize=16;" parent="7nqQfGkcjDdLF6Xs0SzB-27" vertex="1">
          <mxGeometry y="48" width="280" height="30" as="geometry" />
        </mxCell>
        <mxCell id="7nqQfGkcjDdLF6Xs0SzB-35" value="FK" style="shape=partialRectangle;html=1;whiteSpace=wrap;connectable=0;fillColor=none;top=0;left=0;bottom=0;right=0;overflow=hidden;strokeColor=inherit;fontSize=16;" parent="7nqQfGkcjDdLF6Xs0SzB-34" vertex="1">
          <mxGeometry width="59" height="30" as="geometry">
            <mxRectangle width="59" height="30" as="alternateBounds" />
          </mxGeometry>
        </mxCell>
        <mxCell id="7nqQfGkcjDdLF6Xs0SzB-36" value="customer_id (integer)" style="shape=partialRectangle;html=1;whiteSpace=wrap;connectable=0;fillColor=none;top=0;left=0;bottom=0;right=0;align=left;spacingLeft=6;overflow=hidden;strokeColor=inherit;fontSize=16;" parent="7nqQfGkcjDdLF6Xs0SzB-34" vertex="1">
          <mxGeometry x="59" width="221" height="30" as="geometry">
            <mxRectangle width="221" height="30" as="alternateBounds" />
          </mxGeometry>
        </mxCell>
        <mxCell id="7nqQfGkcjDdLF6Xs0SzB-37" value="Text" style="text;html=1;align=center;verticalAlign=middle;resizable=0;points=[];autosize=1;strokeColor=none;fillColor=none;" parent="7nqQfGkcjDdLF6Xs0SzB-34" vertex="1">
          <mxGeometry x="280" width="NaN" height="30" as="geometry">
            <mxRectangle width="NaN" height="30" as="alternateBounds" />
          </mxGeometry>
        </mxCell>
        <mxCell id="7nqQfGkcjDdLF6Xs0SzB-38" style="shape=tableRow;horizontal=0;startSize=0;swimlaneHead=0;swimlaneBody=0;top=0;left=0;bottom=0;right=0;collapsible=0;dropTarget=0;fillColor=none;points=[[0,0.5],[1,0.5]];portConstraint=eastwest;strokeColor=inherit;fontSize=16;" parent="7nqQfGkcjDdLF6Xs0SzB-27" vertex="1">
          <mxGeometry y="78" width="280" height="30" as="geometry" />
        </mxCell>
        <mxCell id="7nqQfGkcjDdLF6Xs0SzB-39" value="" style="shape=partialRectangle;html=1;whiteSpace=wrap;connectable=0;fillColor=none;top=0;left=0;bottom=0;right=0;overflow=hidden;strokeColor=inherit;fontSize=16;" parent="7nqQfGkcjDdLF6Xs0SzB-38" vertex="1">
          <mxGeometry width="59" height="30" as="geometry">
            <mxRectangle width="59" height="30" as="alternateBounds" />
          </mxGeometry>
        </mxCell>
        <mxCell id="7nqQfGkcjDdLF6Xs0SzB-40" value="amount (smallint)" style="shape=partialRectangle;html=1;whiteSpace=wrap;connectable=0;fillColor=none;top=0;left=0;bottom=0;right=0;align=left;spacingLeft=6;overflow=hidden;strokeColor=inherit;fontSize=16;" parent="7nqQfGkcjDdLF6Xs0SzB-38" vertex="1">
          <mxGeometry x="59" width="221" height="30" as="geometry">
            <mxRectangle width="221" height="30" as="alternateBounds" />
          </mxGeometry>
        </mxCell>
        <mxCell id="7nqQfGkcjDdLF6Xs0SzB-41" style="text;html=1;align=center;verticalAlign=middle;resizable=0;points=[];autosize=1;strokeColor=none;fillColor=none;" parent="7nqQfGkcjDdLF6Xs0SzB-38" vertex="1">
          <mxGeometry x="280" width="NaN" height="30" as="geometry">
            <mxRectangle width="NaN" height="30" as="alternateBounds" />
          </mxGeometry>
        </mxCell>
        <mxCell id="7nqQfGkcjDdLF6Xs0SzB-42" value="order_items" style="shape=table;startSize=19;container=1;collapsible=0;childLayout=tableLayout;fixedRows=1;rowLines=0;fontStyle=0;strokeColor=default;fontSize=16;" parent="1" vertex="1">
          <mxGeometry x="-340" y="300" width="218" height="170" as="geometry" />
        </mxCell>
        <mxCell id="7nqQfGkcjDdLF6Xs0SzB-43" value="" style="shape=tableRow;horizontal=0;startSize=0;swimlaneHead=0;swimlaneBody=0;top=0;left=0;bottom=0;right=0;collapsible=0;dropTarget=0;fillColor=none;points=[[0,0.5],[1,0.5]];portConstraint=eastwest;strokeColor=inherit;fontSize=16;" parent="7nqQfGkcjDdLF6Xs0SzB-42" vertex="1">
          <mxGeometry y="19" width="218" height="29" as="geometry" />
        </mxCell>
        <mxCell id="7nqQfGkcjDdLF6Xs0SzB-44" value="PK" style="shape=partialRectangle;html=1;whiteSpace=wrap;connectable=0;fillColor=none;top=0;left=0;bottom=0;right=0;overflow=hidden;pointerEvents=1;strokeColor=inherit;fontSize=16;" parent="7nqQfGkcjDdLF6Xs0SzB-43" vertex="1">
          <mxGeometry width="46" height="29" as="geometry">
            <mxRectangle width="46" height="29" as="alternateBounds" />
          </mxGeometry>
        </mxCell>
        <mxCell id="7nqQfGkcjDdLF6Xs0SzB-45" value="id (serial)" style="shape=partialRectangle;html=1;whiteSpace=wrap;connectable=0;fillColor=none;top=0;left=0;bottom=0;right=0;align=left;spacingLeft=6;overflow=hidden;strokeColor=inherit;fontSize=16;" parent="7nqQfGkcjDdLF6Xs0SzB-43" vertex="1">
          <mxGeometry x="46" width="172" height="29" as="geometry">
            <mxRectangle width="172" height="29" as="alternateBounds" />
          </mxGeometry>
        </mxCell>
        <mxCell id="7nqQfGkcjDdLF6Xs0SzB-46" value="" style="shape=tableRow;horizontal=0;startSize=0;swimlaneHead=0;swimlaneBody=0;top=0;left=0;bottom=0;right=0;collapsible=0;dropTarget=0;fillColor=none;points=[[0,0.5],[1,0.5]];portConstraint=eastwest;strokeColor=inherit;fontSize=16;" parent="7nqQfGkcjDdLF6Xs0SzB-42" vertex="1">
          <mxGeometry y="48" width="218" height="30" as="geometry" />
        </mxCell>
        <mxCell id="7nqQfGkcjDdLF6Xs0SzB-47" value="FK" style="shape=partialRectangle;html=1;whiteSpace=wrap;connectable=0;fillColor=none;top=0;left=0;bottom=0;right=0;overflow=hidden;strokeColor=inherit;fontSize=16;" parent="7nqQfGkcjDdLF6Xs0SzB-46" vertex="1">
          <mxGeometry width="46" height="30" as="geometry">
            <mxRectangle width="46" height="30" as="alternateBounds" />
          </mxGeometry>
        </mxCell>
        <mxCell id="7nqQfGkcjDdLF6Xs0SzB-48" value="order_id (integer)" style="shape=partialRectangle;html=1;whiteSpace=wrap;connectable=0;fillColor=none;top=0;left=0;bottom=0;right=0;align=left;spacingLeft=6;overflow=hidden;strokeColor=inherit;fontSize=16;" parent="7nqQfGkcjDdLF6Xs0SzB-46" vertex="1">
          <mxGeometry x="46" width="172" height="30" as="geometry">
            <mxRectangle width="172" height="30" as="alternateBounds" />
          </mxGeometry>
        </mxCell>
        <mxCell id="7nqQfGkcjDdLF6Xs0SzB-49" value="" style="shape=tableRow;horizontal=0;startSize=0;swimlaneHead=0;swimlaneBody=0;top=0;left=0;bottom=0;right=0;collapsible=0;dropTarget=0;fillColor=none;points=[[0,0.5],[1,0.5]];portConstraint=eastwest;strokeColor=inherit;fontSize=16;" parent="7nqQfGkcjDdLF6Xs0SzB-42" vertex="1">
          <mxGeometry y="78" width="218" height="30" as="geometry" />
        </mxCell>
        <mxCell id="7nqQfGkcjDdLF6Xs0SzB-50" value="FK" style="shape=partialRectangle;html=1;whiteSpace=wrap;connectable=0;fillColor=none;top=0;left=0;bottom=0;right=0;overflow=hidden;strokeColor=inherit;fontSize=16;" parent="7nqQfGkcjDdLF6Xs0SzB-49" vertex="1">
          <mxGeometry width="46" height="30" as="geometry">
            <mxRectangle width="46" height="30" as="alternateBounds" />
          </mxGeometry>
        </mxCell>
        <mxCell id="7nqQfGkcjDdLF6Xs0SzB-51" value="product_id (integer)" style="shape=partialRectangle;html=1;whiteSpace=wrap;connectable=0;fillColor=none;top=0;left=0;bottom=0;right=0;align=left;spacingLeft=6;overflow=hidden;strokeColor=inherit;fontSize=16;" parent="7nqQfGkcjDdLF6Xs0SzB-49" vertex="1">
          <mxGeometry x="46" width="172" height="30" as="geometry">
            <mxRectangle width="172" height="30" as="alternateBounds" />
          </mxGeometry>
        </mxCell>
        <mxCell id="7nqQfGkcjDdLF6Xs0SzB-52" value="Text" style="text;html=1;align=center;verticalAlign=middle;resizable=0;points=[];autosize=1;strokeColor=none;fillColor=none;" parent="7nqQfGkcjDdLF6Xs0SzB-49" vertex="1">
          <mxGeometry x="218" height="30" as="geometry">
            <mxRectangle width="NaN" height="30" as="alternateBounds" />
          </mxGeometry>
        </mxCell>
        <mxCell id="7nqQfGkcjDdLF6Xs0SzB-72" style="shape=tableRow;horizontal=0;startSize=0;swimlaneHead=0;swimlaneBody=0;top=0;left=0;bottom=0;right=0;collapsible=0;dropTarget=0;fillColor=none;points=[[0,0.5],[1,0.5]];portConstraint=eastwest;strokeColor=inherit;fontSize=16;" parent="7nqQfGkcjDdLF6Xs0SzB-42" vertex="1">
          <mxGeometry y="108" width="218" height="30" as="geometry" />
        </mxCell>
        <mxCell id="7nqQfGkcjDdLF6Xs0SzB-73" style="shape=partialRectangle;html=1;whiteSpace=wrap;connectable=0;fillColor=none;top=0;left=0;bottom=0;right=0;overflow=hidden;strokeColor=inherit;fontSize=16;" parent="7nqQfGkcjDdLF6Xs0SzB-72" vertex="1">
          <mxGeometry width="46" height="30" as="geometry">
            <mxRectangle width="46" height="30" as="alternateBounds" />
          </mxGeometry>
        </mxCell>
        <mxCell id="7nqQfGkcjDdLF6Xs0SzB-74" value="size (varchar4)" style="shape=partialRectangle;html=1;whiteSpace=wrap;connectable=0;fillColor=none;top=0;left=0;bottom=0;right=0;align=left;spacingLeft=6;overflow=hidden;strokeColor=inherit;fontSize=16;" parent="7nqQfGkcjDdLF6Xs0SzB-72" vertex="1">
          <mxGeometry x="46" width="172" height="30" as="geometry">
            <mxRectangle width="172" height="30" as="alternateBounds" />
          </mxGeometry>
        </mxCell>
        <mxCell id="7nqQfGkcjDdLF6Xs0SzB-75" style="text;html=1;align=center;verticalAlign=middle;resizable=0;points=[];autosize=1;strokeColor=none;fillColor=none;" parent="7nqQfGkcjDdLF6Xs0SzB-72" vertex="1">
          <mxGeometry x="218" height="30" as="geometry">
            <mxRectangle width="NaN" height="30" as="alternateBounds" />
          </mxGeometry>
        </mxCell>
        <mxCell id="7nqQfGkcjDdLF6Xs0SzB-76" style="shape=tableRow;horizontal=0;startSize=0;swimlaneHead=0;swimlaneBody=0;top=0;left=0;bottom=0;right=0;collapsible=0;dropTarget=0;fillColor=none;points=[[0,0.5],[1,0.5]];portConstraint=eastwest;strokeColor=inherit;fontSize=16;" parent="7nqQfGkcjDdLF6Xs0SzB-42" vertex="1">
          <mxGeometry y="138" width="218" height="30" as="geometry" />
        </mxCell>
        <mxCell id="7nqQfGkcjDdLF6Xs0SzB-77" style="shape=partialRectangle;html=1;whiteSpace=wrap;connectable=0;fillColor=none;top=0;left=0;bottom=0;right=0;overflow=hidden;strokeColor=inherit;fontSize=16;" parent="7nqQfGkcjDdLF6Xs0SzB-76" vertex="1">
          <mxGeometry width="46" height="30" as="geometry">
            <mxRectangle width="46" height="30" as="alternateBounds" />
          </mxGeometry>
        </mxCell>
        <mxCell id="7nqQfGkcjDdLF6Xs0SzB-78" value="quantity (smallint)" style="shape=partialRectangle;html=1;whiteSpace=wrap;connectable=0;fillColor=none;top=0;left=0;bottom=0;right=0;align=left;spacingLeft=6;overflow=hidden;strokeColor=inherit;fontSize=16;" parent="7nqQfGkcjDdLF6Xs0SzB-76" vertex="1">
          <mxGeometry x="46" width="172" height="30" as="geometry">
            <mxRectangle width="172" height="30" as="alternateBounds" />
          </mxGeometry>
        </mxCell>
        <mxCell id="7nqQfGkcjDdLF6Xs0SzB-79" style="text;html=1;align=center;verticalAlign=middle;resizable=0;points=[];autosize=1;strokeColor=none;fillColor=none;" parent="7nqQfGkcjDdLF6Xs0SzB-76" vertex="1">
          <mxGeometry x="218" height="30" as="geometry">
            <mxRectangle width="NaN" height="30" as="alternateBounds" />
          </mxGeometry>
        </mxCell>
        <mxCell id="7nqQfGkcjDdLF6Xs0SzB-57" value="customers" style="shape=table;startSize=19;container=1;collapsible=0;childLayout=tableLayout;fixedRows=1;rowLines=0;fontStyle=0;strokeColor=default;fontSize=16;" parent="1" vertex="1">
          <mxGeometry x="210" y="500" width="218" height="108" as="geometry" />
        </mxCell>
        <mxCell id="7nqQfGkcjDdLF6Xs0SzB-58" value="" style="shape=tableRow;horizontal=0;startSize=0;swimlaneHead=0;swimlaneBody=0;top=0;left=0;bottom=0;right=0;collapsible=0;dropTarget=0;fillColor=none;points=[[0,0.5],[1,0.5]];portConstraint=eastwest;strokeColor=inherit;fontSize=16;" parent="7nqQfGkcjDdLF6Xs0SzB-57" vertex="1">
          <mxGeometry y="19" width="218" height="29" as="geometry" />
        </mxCell>
        <mxCell id="7nqQfGkcjDdLF6Xs0SzB-59" value="PK" style="shape=partialRectangle;html=1;whiteSpace=wrap;connectable=0;fillColor=none;top=0;left=0;bottom=0;right=0;overflow=hidden;pointerEvents=1;strokeColor=inherit;fontSize=16;" parent="7nqQfGkcjDdLF6Xs0SzB-58" vertex="1">
          <mxGeometry width="46" height="29" as="geometry">
            <mxRectangle width="46" height="29" as="alternateBounds" />
          </mxGeometry>
        </mxCell>
        <mxCell id="7nqQfGkcjDdLF6Xs0SzB-60" value="id (serial)" style="shape=partialRectangle;html=1;whiteSpace=wrap;connectable=0;fillColor=none;top=0;left=0;bottom=0;right=0;align=left;spacingLeft=6;overflow=hidden;strokeColor=inherit;fontSize=16;" parent="7nqQfGkcjDdLF6Xs0SzB-58" vertex="1">
          <mxGeometry x="46" width="172" height="29" as="geometry">
            <mxRectangle width="172" height="29" as="alternateBounds" />
          </mxGeometry>
        </mxCell>
        <mxCell id="7nqQfGkcjDdLF6Xs0SzB-61" value="" style="shape=tableRow;horizontal=0;startSize=0;swimlaneHead=0;swimlaneBody=0;top=0;left=0;bottom=0;right=0;collapsible=0;dropTarget=0;fillColor=none;points=[[0,0.5],[1,0.5]];portConstraint=eastwest;strokeColor=inherit;fontSize=16;" parent="7nqQfGkcjDdLF6Xs0SzB-57" vertex="1">
          <mxGeometry y="48" width="218" height="30" as="geometry" />
        </mxCell>
        <mxCell id="7nqQfGkcjDdLF6Xs0SzB-62" value="" style="shape=partialRectangle;html=1;whiteSpace=wrap;connectable=0;fillColor=none;top=0;left=0;bottom=0;right=0;overflow=hidden;strokeColor=inherit;fontSize=16;" parent="7nqQfGkcjDdLF6Xs0SzB-61" vertex="1">
          <mxGeometry width="46" height="30" as="geometry">
            <mxRectangle width="46" height="30" as="alternateBounds" />
          </mxGeometry>
        </mxCell>
        <mxCell id="7nqQfGkcjDdLF6Xs0SzB-63" value="username (varchar20)" style="shape=partialRectangle;html=1;whiteSpace=wrap;connectable=0;fillColor=none;top=0;left=0;bottom=0;right=0;align=left;spacingLeft=6;overflow=hidden;strokeColor=inherit;fontSize=16;" parent="7nqQfGkcjDdLF6Xs0SzB-61" vertex="1">
          <mxGeometry x="46" width="172" height="30" as="geometry">
            <mxRectangle width="172" height="30" as="alternateBounds" />
          </mxGeometry>
        </mxCell>
        <mxCell id="7nqQfGkcjDdLF6Xs0SzB-64" value="" style="shape=tableRow;horizontal=0;startSize=0;swimlaneHead=0;swimlaneBody=0;top=0;left=0;bottom=0;right=0;collapsible=0;dropTarget=0;fillColor=none;points=[[0,0.5],[1,0.5]];portConstraint=eastwest;strokeColor=inherit;fontSize=16;" parent="7nqQfGkcjDdLF6Xs0SzB-57" vertex="1">
          <mxGeometry y="78" width="218" height="30" as="geometry" />
        </mxCell>
        <mxCell id="7nqQfGkcjDdLF6Xs0SzB-65" value="" style="shape=partialRectangle;html=1;whiteSpace=wrap;connectable=0;fillColor=none;top=0;left=0;bottom=0;right=0;overflow=hidden;strokeColor=inherit;fontSize=16;" parent="7nqQfGkcjDdLF6Xs0SzB-64" vertex="1">
          <mxGeometry width="46" height="30" as="geometry">
            <mxRectangle width="46" height="30" as="alternateBounds" />
          </mxGeometry>
        </mxCell>
        <mxCell id="7nqQfGkcjDdLF6Xs0SzB-66" value="password" style="shape=partialRectangle;html=1;whiteSpace=wrap;connectable=0;fillColor=none;top=0;left=0;bottom=0;right=0;align=left;spacingLeft=6;overflow=hidden;strokeColor=inherit;fontSize=16;" parent="7nqQfGkcjDdLF6Xs0SzB-64" vertex="1">
          <mxGeometry x="46" width="172" height="30" as="geometry">
            <mxRectangle width="172" height="30" as="alternateBounds" />
          </mxGeometry>
        </mxCell>
        <mxCell id="7nqQfGkcjDdLF6Xs0SzB-67" value="Text" style="text;html=1;align=center;verticalAlign=middle;resizable=0;points=[];autosize=1;strokeColor=none;fillColor=none;" parent="7nqQfGkcjDdLF6Xs0SzB-64" vertex="1">
          <mxGeometry x="218" width="NaN" height="30" as="geometry">
            <mxRectangle width="NaN" height="30" as="alternateBounds" />
          </mxGeometry>
        </mxCell>
        <mxCell id="7nqQfGkcjDdLF6Xs0SzB-86" value="" style="edgeStyle=orthogonalEdgeStyle;fontSize=12;html=1;endArrow=ERoneToMany;rounded=0;entryX=1.014;entryY=0.8;entryDx=0;entryDy=0;exitX=0;exitY=0.5;exitDx=0;exitDy=0;entryPerimeter=0;" parent="1" source="7nqQfGkcjDdLF6Xs0SzB-58" target="7nqQfGkcjDdLF6Xs0SzB-34" edge="1">
          <mxGeometry width="100" height="100" relative="1" as="geometry">
            <mxPoint x="660" y="340" as="sourcePoint" />
            <mxPoint x="552" y="449" as="targetPoint" />
          </mxGeometry>
        </mxCell>
        <mxCell id="7nqQfGkcjDdLF6Xs0SzB-88" value="" style="edgeStyle=elbowEdgeStyle;fontSize=12;html=1;endArrow=ERoneToMany;rounded=0;exitX=0;exitY=0.5;exitDx=0;exitDy=0;entryX=1;entryY=0.5;entryDx=0;entryDy=0;" parent="1" source="7nqQfGkcjDdLF6Xs0SzB-28" target="7nqQfGkcjDdLF6Xs0SzB-46" edge="1">
          <mxGeometry width="100" height="100" relative="1" as="geometry">
            <mxPoint x="-35.03999999999989" y="310" as="sourcePoint" />
            <mxPoint x="-139.996" y="365.99" as="targetPoint" />
          </mxGeometry>
        </mxCell>
        <mxCell id="7nqQfGkcjDdLF6Xs0SzB-90" value="" style="edgeStyle=elbowEdgeStyle;fontSize=12;html=1;endArrow=ERoneToMany;rounded=0;elbow=vertical;exitX=1;exitY=0.5;exitDx=0;exitDy=0;" parent="1" source="7nqQfGkcjDdLF6Xs0SzB-2" edge="1">
          <mxGeometry width="100" height="100" relative="1" as="geometry">
            <mxPoint x="-440" y="490" as="sourcePoint" />
            <mxPoint x="-340" y="390" as="targetPoint" />
            <Array as="points">
              <mxPoint x="-490" y="390" />
            </Array>
          </mxGeometry>
        </mxCell>
      </root>
    </mxGraphModel>
  </diagram>
</mxfile>
